<svg width="36" height="36" viewBox="0 0 36 36" fill="none" xmlns="http://www.w3.org/2000/svg">
<rect width="36" height="36" rx="10" fill="#6CC165"/>
<path d="M27.4117 11.512C27.7738 11.8535 27.9851 12.3246 27.9992 12.8216C28.0133 13.3186 27.829 13.8008 27.4869 14.1623L16.8367 25.4136C16.664 25.5956 16.4566 25.7413 16.2266 25.842C15.9967 25.9426 15.7488 25.9963 15.4977 25.9998C15.2465 26.0033 14.9972 25.9566 14.7645 25.8623C14.5318 25.7681 14.3204 25.6282 14.1428 25.4511L8.50442 19.8254C8.17244 19.47 7.9917 18.9998 8.00029 18.514C8.00888 18.0282 8.20613 17.5646 8.55048 17.2211C8.89483 16.8775 9.35939 16.6807 9.84629 16.6721C10.3332 16.6636 10.8044 16.8439 11.1607 17.1751L15.4333 21.4356L24.7554 11.587C25.0977 11.2257 25.5699 11.0148 26.068 11.0008C26.5661 10.9867 27.0494 11.1706 27.4117 11.512Z" fill="white"/>
</svg>
