<svg width="21" height="21" viewBox="0 0 21 21" fill="none" xmlns="http://www.w3.org/2000/svg">
<g filter="url(#filter0_i)">
<rect width="21" height="21" rx="5" fill="#6D6D6D"/>
</g>
<path d="M16.52 15.86H5.48C5.2145 15.86 5 16.0745 5 16.34V16.88C5 16.946 5.054 17 5.12 17H16.88C16.946 17 17 16.946 17 16.88V16.34C17 16.0745 16.7855 15.86 16.52 15.86ZM7.1855 14.6C7.2155 14.6 7.2455 14.597 7.2755 14.5925L9.7985 14.15C9.8285 14.144 9.857 14.1305 9.878 14.108L16.2365 7.7495C16.2504 7.73562 16.2614 7.71914 16.269 7.70099C16.2765 7.68285 16.2804 7.6634 16.2804 7.64375C16.2804 7.6241 16.2765 7.60465 16.269 7.58651C16.2614 7.56836 16.2504 7.55188 16.2365 7.538L13.7435 5.0435C13.715 5.015 13.6775 5 13.637 5C13.5965 5 13.559 5.015 13.5305 5.0435L7.172 11.402C7.1495 11.4245 7.136 11.4515 7.13 11.4815L6.6875 14.0045C6.67291 14.0849 6.67812 14.1676 6.70269 14.2454C6.72726 14.3233 6.77044 14.3941 6.8285 14.4515C6.9275 14.5475 7.052 14.6 7.1855 14.6Z" fill="white"/>
<defs>
<filter id="filter0_i" x="0" y="0" width="21" height="25" filterUnits="userSpaceOnUse" color-interpolation-filters="sRGB">
<feFlood flood-opacity="0" result="BackgroundImageFix"/>
<feBlend mode="normal" in="SourceGraphic" in2="BackgroundImageFix" result="shape"/>
<feColorMatrix in="SourceAlpha" type="matrix" values="0 0 0 0 0 0 0 0 0 0 0 0 0 0 0 0 0 0 127 0" result="hardAlpha"/>
<feOffset dy="4"/>
<feGaussianBlur stdDeviation="5"/>
<feComposite in2="hardAlpha" operator="arithmetic" k2="-1" k3="1"/>
<feColorMatrix type="matrix" values="0 0 0 0 0 0 0 0 0 0 0 0 0 0 0 0 0 0 0.15 0"/>
<feBlend mode="normal" in2="shape" result="effect1_innerShadow"/>
</filter>
</defs>
</svg>
