<svg width="21" height="21" viewBox="0 0 21 21" fill="none" xmlns="http://www.w3.org/2000/svg">
<rect width="21" height="21" rx="5" fill="url(#paint0_linear)"/>
<path d="M14.3623 5.09267C14.789 4.66605 15.4807 4.66605 15.9073 5.09267C16.3339 5.5193 16.3339 6.21099 15.9073 6.63762L6.63762 15.9073C6.21099 16.3339 5.5193 16.3339 5.09267 15.9073C4.66605 15.4807 4.66605 14.789 5.09267 14.3623L14.3623 5.09267Z" fill="white"/>
<path d="M15.9073 14.3623C16.3339 14.789 16.3339 15.4807 15.9073 15.9073C15.4807 16.3339 14.789 16.3339 14.3623 15.9073L5.09267 6.63762C4.66605 6.21099 4.66605 5.5193 5.09267 5.09267C5.5193 4.66605 6.21099 4.66605 6.63762 5.09267L15.9073 14.3623Z" fill="white"/>
<defs>
<linearGradient id="paint0_linear" x1="10.5" y1="0" x2="10.5" y2="21" gradientUnits="userSpaceOnUse">
<stop stop-color="#C74D4D"/>
<stop offset="1" stop-color="#B33B3B"/>
</linearGradient>
</defs>
</svg>
