<svg width="36" height="36" viewBox="0 0 36 36" fill="none" xmlns="http://www.w3.org/2000/svg">
<rect width="36" height="36" rx="10" fill="url(#paint0_linear)"/>
<path d="M29.2646 9.6485C29.7173 10.0811 29.9814 10.6778 29.9991 11.3074C30.0167 11.9369 29.7863 12.5477 29.3586 13.0056L16.0458 27.2572C15.8301 27.4878 15.5708 27.6723 15.2833 27.7998C14.9958 27.9273 14.686 27.9953 14.3721 27.9998C14.0582 28.0042 13.7466 27.945 13.4557 27.8256C13.1648 27.7062 12.9005 27.5291 12.6785 27.3047L5.63053 20.1789C5.21555 19.7286 4.98963 19.1331 5.00037 18.5177C5.0111 17.9023 5.25766 17.3152 5.6881 16.88C6.11853 16.4448 6.69924 16.1956 7.30787 16.1847C7.9165 16.1738 8.50554 16.4023 8.95089 16.8218L14.2917 22.2184L25.9443 9.74351C26.3722 9.28586 26.9623 9.01877 27.585 9.00095C28.2076 8.98314 28.8118 9.21605 29.2646 9.6485Z" fill="white"/>
<g filter="url(#filter0_i)">
<rect width="36" height="36" rx="10" fill="#6D6D6D"/>
</g>
<path d="M26.0558 30L22.419 23.68C22.419 21.3733 20.9936 19.8933 19.2618 19.8933C18.0628 19.8933 17.0237 20.56 16.4908 21.5467C16.9305 21.2933 17.45 21.16 17.9962 21.16C19.728 21.16 21.1401 22.5733 21.1401 24.3067C21.1401 26.0533 19.7413 27.48 17.9962 27.48H22.3924V30H11.0556C10.7359 30 10.4028 29.88 10.163 29.6267C9.92647 29.3897 9.79359 29.0683 9.79359 28.7333C9.79359 28.3983 9.92647 28.077 10.163 27.84L10.8291 27.1733C10.3762 26.9733 10.0032 26.6667 9.63016 26.3467C9.33709 27.0133 8.671 27.48 7.89834 27.48C7.39487 27.48 6.91202 27.2798 6.55601 26.9235C6.2 26.5672 6 26.0839 6 25.58C6 25.0761 6.2 24.5928 6.55601 24.2365C6.91202 23.8802 7.39487 23.68 7.89834 23.68L8.52446 23.7867V21.16C8.52271 20.3296 8.68484 19.5069 9.00155 18.7394C9.31826 17.9718 9.78331 17.2744 10.37 16.6872C10.9567 16.0999 11.6535 15.6345 12.4204 15.3175C13.1873 15.0005 14.0092 14.8382 14.8389 14.84H14.8656C17.6898 14.8533 19.8879 15.96 19.8879 14.2133C19.8879 12.9733 20.1543 12.48 20.6072 11.7867C19.6348 11.3333 18.5291 11.0533 17.3701 11.0533C16.664 11.0533 16.1045 10.4933 16.1045 9.78667C16.1045 9.21333 16.4775 8.73333 16.9971 8.57333L16.1045 8.52C15.4118 8.52 14.8389 7.96 14.8389 7.26667C14.8389 6.56 15.4118 6 16.1045 6H17.3701C20.1676 6 22.6188 7.53333 23.9377 9.8L24.3107 9.78667C25.2565 9.78667 26.1357 10.0933 26.8551 10.6L27.4546 11.1067C30.3454 13.7067 29.9857 15.4667 29.9857 15.48C29.9857 17.1867 28.5736 18.5867 26.8551 18.5867L26.2024 18.52V18.6267C26.2024 20.1067 25.5629 21.4267 24.5638 22.36L28.9733 30H26.0558ZM26.2024 12.32C25.4963 12.32 24.9368 12.88 24.9368 13.5733C24.9368 14.28 25.4963 14.84 26.2024 14.84C26.8951 14.84 27.4679 14.28 27.4679 13.5733C27.4679 12.88 26.8951 12.32 26.2024 12.32Z" fill="white"/>
<defs>
<filter id="filter0_i" x="0" y="0" width="36" height="40" filterUnits="userSpaceOnUse" color-interpolation-filters="sRGB">
<feFlood flood-opacity="0" result="BackgroundImageFix"/>
<feBlend mode="normal" in="SourceGraphic" in2="BackgroundImageFix" result="shape"/>
<feColorMatrix in="SourceAlpha" type="matrix" values="0 0 0 0 0 0 0 0 0 0 0 0 0 0 0 0 0 0 127 0" result="hardAlpha"/>
<feOffset dy="4"/>
<feGaussianBlur stdDeviation="5"/>
<feComposite in2="hardAlpha" operator="arithmetic" k2="-1" k3="1"/>
<feColorMatrix type="matrix" values="0 0 0 0 0 0 0 0 0 0 0 0 0 0 0 0 0 0 0.15 0"/>
<feBlend mode="normal" in2="shape" result="effect1_innerShadow"/>
</filter>
<linearGradient id="paint0_linear" x1="18" y1="0" x2="18" y2="36" gradientUnits="userSpaceOnUse">
<stop stop-color="#5AB752"/>
<stop offset="1" stop-color="#249F53"/>
</linearGradient>
</defs>
</svg>
