<svg width="36" height="36" viewBox="0 0 36 36" fill="none" xmlns="http://www.w3.org/2000/svg">
<g filter="url(#filter0_i)">
<rect width="36" height="36" rx="10" fill="#6D6D6D"/>
</g>
<path d="M23.2062 27L20.6301 22.5233C20.6301 20.8894 19.6204 19.8411 18.3937 19.8411C17.5445 19.8411 16.8085 20.3133 16.431 21.0122C16.7424 20.8328 17.1104 20.7383 17.4973 20.7383C18.724 20.7383 19.7242 21.7394 19.7242 22.9672C19.7242 24.2044 18.7334 25.215 17.4973 25.215H20.6112V27H12.581C12.3546 27 12.1187 26.915 11.9488 26.7356C11.7812 26.5677 11.6871 26.3401 11.6871 26.1028C11.6871 25.8655 11.7812 25.6379 11.9488 25.47L12.4206 24.9978C12.0998 24.8561 11.8356 24.6389 11.5714 24.4122C11.3638 24.8844 10.892 25.215 10.3447 25.215C9.98803 25.215 9.64601 25.0732 9.39384 24.8208C9.14167 24.5684 9 24.2261 9 23.8692C9 23.5122 9.14167 23.1699 9.39384 22.9175C9.64601 22.6651 9.98803 22.5233 10.3447 22.5233L10.7882 22.5989V20.7383C10.7869 20.1501 10.9018 19.5674 11.1261 19.0237C11.3504 18.48 11.6798 17.986 12.0954 17.5701C12.511 17.1541 13.0046 16.8244 13.5478 16.5999C14.091 16.3754 14.6732 16.2604 15.2609 16.2617H15.2798C17.2803 16.2711 18.8372 17.055 18.8372 15.8178C18.8372 14.9394 19.026 14.59 19.3468 14.0989C18.658 13.7778 17.8747 13.5794 17.0538 13.5794C16.5537 13.5794 16.1574 13.1828 16.1574 12.6822C16.1574 12.2761 16.4216 11.9361 16.7896 11.8228L16.1574 11.785C15.6667 11.785 15.2609 11.3883 15.2609 10.8972C15.2609 10.3967 15.6667 10 16.1574 10H17.0538C19.0354 10 20.7717 11.0861 21.7058 12.6917L21.9701 12.6822C22.64 12.6822 23.2628 12.8994 23.7724 13.2583L24.197 13.6172C26.2447 15.4589 25.9899 16.7056 25.9899 16.715C25.9899 17.9239 24.9896 18.9156 23.7724 18.9156L23.31 18.8683V18.9439C23.31 19.9922 22.8571 20.9272 22.1493 21.5883L25.2727 27H23.2062ZM23.31 14.4767C22.8099 14.4767 22.4136 14.8733 22.4136 15.3644C22.4136 15.865 22.8099 16.2617 23.31 16.2617C23.8007 16.2617 24.2064 15.865 24.2064 15.3644C24.2064 14.8733 23.8007 14.4767 23.31 14.4767Z" fill="white"/>
<defs>
<filter id="filter0_i" x="0" y="0" width="36" height="40" filterUnits="userSpaceOnUse" color-interpolation-filters="sRGB">
<feFlood flood-opacity="0" result="BackgroundImageFix"/>
<feBlend mode="normal" in="SourceGraphic" in2="BackgroundImageFix" result="shape"/>
<feColorMatrix in="SourceAlpha" type="matrix" values="0 0 0 0 0 0 0 0 0 0 0 0 0 0 0 0 0 0 127 0" result="hardAlpha"/>
<feOffset dy="4"/>
<feGaussianBlur stdDeviation="5"/>
<feComposite in2="hardAlpha" operator="arithmetic" k2="-1" k3="1"/>
<feColorMatrix type="matrix" values="0 0 0 0 0 0 0 0 0 0 0 0 0 0 0 0 0 0 0.15 0"/>
<feBlend mode="normal" in2="shape" result="effect1_innerShadow"/>
</filter>
</defs>
</svg>
