<svg width="35" height="35" viewBox="0 0 35 35" fill="none" xmlns="http://www.w3.org/2000/svg">
<circle cx="17.5" cy="17.5" r="17.5" fill="url(#paint0_linear)"/>
<path d="M23.2062 26L20.6301 21.5233C20.6301 19.8894 19.6204 18.8411 18.3937 18.8411C17.5445 18.8411 16.8085 19.3133 16.431 20.0122C16.7424 19.8328 17.1104 19.7383 17.4973 19.7383C18.724 19.7383 19.7242 20.7394 19.7242 21.9672C19.7242 23.2044 18.7334 24.215 17.4973 24.215H20.6112V26H12.581C12.3546 26 12.1187 25.915 11.9488 25.7356C11.7812 25.5677 11.6871 25.3401 11.6871 25.1028C11.6871 24.8655 11.7812 24.6379 11.9488 24.47L12.4206 23.9978C12.0998 23.8561 11.8356 23.6389 11.5714 23.4122C11.3638 23.8844 10.892 24.215 10.3447 24.215C9.98803 24.215 9.64601 24.0732 9.39384 23.8208C9.14167 23.5684 9 23.2261 9 22.8692C9 22.5122 9.14167 22.1699 9.39384 21.9175C9.64601 21.6651 9.98803 21.5233 10.3447 21.5233L10.7882 21.5989V19.7383C10.7869 19.1501 10.9018 18.5674 11.1261 18.0237C11.3504 17.48 11.6798 16.986 12.0954 16.5701C12.511 16.1541 13.0046 15.8244 13.5478 15.5999C14.091 15.3754 14.6732 15.2604 15.2609 15.2617H15.2798C17.2803 15.2711 18.8372 16.055 18.8372 14.8178C18.8372 13.9394 19.026 13.59 19.3468 13.0989C18.658 12.7778 17.8747 12.5794 17.0538 12.5794C16.5537 12.5794 16.1574 12.1828 16.1574 11.6822C16.1574 11.2761 16.4216 10.9361 16.7896 10.8228L16.1574 10.785C15.6667 10.785 15.2609 10.3883 15.2609 9.89722C15.2609 9.39667 15.6667 9 16.1574 9H17.0538C19.0354 9 20.7717 10.0861 21.7058 11.6917L21.9701 11.6822C22.64 11.6822 23.2628 11.8994 23.7724 12.2583L24.197 12.6172C26.2447 14.4589 25.9899 15.7056 25.9899 15.715C25.9899 16.9239 24.9896 17.9156 23.7724 17.9156L23.31 17.8683V17.9439C23.31 18.9922 22.8571 19.9272 22.1493 20.5883L25.2727 26H23.2062ZM23.31 13.4767C22.8099 13.4767 22.4136 13.8733 22.4136 14.3644C22.4136 14.865 22.8099 15.2617 23.31 15.2617C23.8007 15.2617 24.2064 14.865 24.2064 14.3644C24.2064 13.8733 23.8007 13.4767 23.31 13.4767Z" fill="white"/>
<defs>
<linearGradient id="paint0_linear" x1="17.5" y1="0" x2="17.5" y2="35" gradientUnits="userSpaceOnUse">
<stop stop-color="#5AB752"/>
<stop offset="1" stop-color="#249F53"/>
</linearGradient>
</defs>
</svg>
