<svg width="14" height="14" viewBox="0 0 14 14" fill="none" xmlns="http://www.w3.org/2000/svg">
<path d="M2.8 6.3C2.8 6.11435 2.87375 5.9363 3.00503 5.80503C3.1363 5.67375 3.31435 5.6 3.5 5.6C3.68565 5.6 3.8637 5.67375 3.99497 5.80503C4.12625 5.9363 4.2 6.11435 4.2 6.3C4.2 6.48565 4.12625 6.6637 3.99497 6.79497C3.8637 6.92625 3.68565 7 3.5 7C3.31435 7 3.1363 6.92625 3.00503 6.79497C2.87375 6.6637 2.8 6.48565 2.8 6.3ZM3.5 8.4C3.31435 8.4 3.1363 8.47375 3.00503 8.60503C2.87375 8.7363 2.8 8.91435 2.8 9.1C2.8 9.28565 2.87375 9.4637 3.00503 9.59497C3.1363 9.72625 3.31435 9.8 3.5 9.8C3.68565 9.8 3.8637 9.72625 3.99497 9.59497C4.12625 9.4637 4.2 9.28565 4.2 9.1C4.2 8.91435 4.12625 8.7363 3.99497 8.60503C3.8637 8.47375 3.68565 8.4 3.5 8.4ZM5.6 6.3C5.6 6.11435 5.67375 5.9363 5.80503 5.80503C5.9363 5.67375 6.11435 5.6 6.3 5.6C6.48565 5.6 6.6637 5.67375 6.79497 5.80503C6.92625 5.9363 7 6.11435 7 6.3C7 6.48565 6.92625 6.6637 6.79497 6.79497C6.6637 6.92625 6.48565 7 6.3 7C6.11435 7 5.9363 6.92625 5.80503 6.79497C5.67375 6.6637 5.6 6.48565 5.6 6.3ZM6.3 8.4C6.11435 8.4 5.9363 8.47375 5.80503 8.60503C5.67375 8.7363 5.6 8.91435 5.6 9.1C5.6 9.28565 5.67375 9.4637 5.80503 9.59497C5.9363 9.72625 6.11435 9.8 6.3 9.8C6.48565 9.8 6.6637 9.72625 6.79497 9.59497C6.92625 9.4637 7 9.28565 7 9.1C7 8.91435 6.92625 8.7363 6.79497 8.60503C6.6637 8.47375 6.48565 8.4 6.3 8.4ZM8.4 6.3C8.4 6.11435 8.47375 5.9363 8.60503 5.80503C8.7363 5.67375 8.91435 5.6 9.1 5.6C9.28565 5.6 9.4637 5.67375 9.59497 5.80503C9.72625 5.9363 9.8 6.11435 9.8 6.3C9.8 6.48565 9.72625 6.6637 9.59497 6.79497C9.4637 6.92625 9.28565 7 9.1 7C8.91435 7 8.7363 6.92625 8.60503 6.79497C8.47375 6.6637 8.4 6.48565 8.4 6.3ZM0 3.5C0 2.57174 0.368749 1.6815 1.02513 1.02513C1.6815 0.368749 2.57174 0 3.5 0H10.5C11.4283 0 12.3185 0.368749 12.9749 1.02513C13.6313 1.6815 14 2.57174 14 3.5V10.5C14 11.4283 13.6313 12.3185 12.9749 12.9749C12.3185 13.6313 11.4283 14 10.5 14H3.5C2.57174 14 1.6815 13.6313 1.02513 12.9749C0.368749 12.3185 0 11.4283 0 10.5V3.5ZM3.5 1.4C3.06554 1.39977 2.64171 1.5343 2.28691 1.78504C1.93211 2.03578 1.66382 2.39039 1.519 2.8H12.481C12.3362 2.39039 12.0679 2.03578 11.7131 1.78504C11.3583 1.5343 10.9345 1.39977 10.5 1.4H3.5ZM12.6 4.2H1.4V10.5C1.4 11.057 1.62125 11.5911 2.01508 11.9849C2.4089 12.3788 2.94305 12.6 3.5 12.6H10.5C11.057 12.6 11.5911 12.3788 11.9849 11.9849C12.3788 11.5911 12.6 11.057 12.6 10.5V4.2Z" fill="#6D6D6D"/>
</svg>
