<svg width="13" height="16" viewBox="0 0 13 16" fill="none" xmlns="http://www.w3.org/2000/svg">
<path d="M1.625 0C1.625 0.4104 2.02312 0.8 2.4375 0.8H10.5625C10.9793 0.8 11.375 0.408 11.375 0H13C13 0.63652 12.7432 1.24697 12.2861 1.69706C11.829 2.14714 11.209 2.4 10.5625 2.4H7.3125L7.31331 4.0496C8.8839 4.24498 10.3281 4.99786 11.3751 6.16702C12.4221 7.33618 12.9998 8.84128 13 10.4V15.2C13 15.4122 12.9144 15.6157 12.762 15.7657C12.6097 15.9157 12.403 16 12.1875 16H0.8125C0.597012 16 0.390349 15.9157 0.237976 15.7657C0.0856026 15.6157 0 15.4122 0 15.2V10.4C2.68725e-05 8.84111 0.577839 7.33582 1.625 6.1666C2.67217 4.99739 4.11669 4.24463 5.6875 4.0496V2.4H2.4375C1.08875 2.4 0 1.328 0 0H1.625ZM6.5 5.6C3.86913 5.6 1.625 7.808 1.625 10.4V14.4H11.375V10.4C11.375 7.8096 9.13087 5.6 6.5 5.6ZM6.5 7.2C7.10287 7.2 7.66675 7.3616 8.151 7.6432L5.92475 9.8344C5.77903 9.97837 5.69443 10.1715 5.68813 10.3747C5.68183 10.5779 5.7543 10.7758 5.89083 10.9282C6.02735 11.0807 6.2177 11.1762 6.4232 11.1955C6.6287 11.2148 6.83394 11.1563 6.99725 11.032L7.07444 10.9656L9.30069 8.7744C9.59212 9.26045 9.74776 9.81377 9.75181 10.3782C9.75586 10.9426 9.60818 11.498 9.32376 11.9881C9.03933 12.4782 8.6283 12.8854 8.13236 13.1685C7.63643 13.4516 7.07325 13.6005 6.5 13.6C4.70437 13.6 3.25 12.168 3.25 10.4C3.25 8.632 4.70437 7.2 6.5 7.2Z" fill="white"/>
</svg>
