<svg width="30" height="30" viewBox="0 0 30 30" fill="none" xmlns="http://www.w3.org/2000/svg">
<rect width="30" height="30" rx="5" fill="url(#paint0_linear)"/>
<path d="M20.5178 7.27527C21.1273 6.66581 22.1154 6.66581 22.7249 7.27527C23.3344 7.88474 23.3344 8.87287 22.7249 9.48234L9.48252 22.7247C8.87306 23.3342 7.88492 23.3342 7.27546 22.7247C6.66599 22.1153 6.66599 21.1271 7.27546 20.5177L20.5178 7.27527Z" fill="white"/>
<path d="M22.7249 20.5177C23.3344 21.1271 23.3344 22.1153 22.7249 22.7247C22.1154 23.3342 21.1273 23.3342 20.5178 22.7247L7.27546 9.48234C6.66599 8.87287 6.66599 7.88474 7.27546 7.27527C7.88492 6.66581 8.87306 6.66581 9.48252 7.27527L22.7249 20.5177Z" fill="white"/>
<defs>
<linearGradient id="paint0_linear" x1="15" y1="0" x2="15" y2="30" gradientUnits="userSpaceOnUse">
<stop stop-color="#C74D4D"/>
<stop offset="1" stop-color="#B33B3B"/>
</linearGradient>
</defs>
</svg>
