<svg width="36" height="36" viewBox="0 0 36 36" fill="none" xmlns="http://www.w3.org/2000/svg">
<g filter="url(#filter0_i)">
<rect width="36" height="36" rx="10" fill="#6D6D6D"/>
</g>
<path d="M6.44444 5H29.5556C30.35 5 31 5.65 31 6.44444V29.5556C31 30.35 30.35 31 29.5556 31H6.44444C5.65 31 5 30.35 5 29.5556V6.44444C5 5.65 5.65 5 6.44444 5ZM16.57 16.5411V7.87444H7.88889V16.5411H16.57ZM28.1256 16.5411V7.87444H19.4589V16.5411H28.1256ZM16.57 28.1111V19.4444H7.88889V28.1111H16.57ZM28.1256 28.1111V19.4444H19.4589V28.1111H28.1256Z" fill="white"/>
<defs>
<filter id="filter0_i" x="0" y="0" width="36" height="40" filterUnits="userSpaceOnUse" color-interpolation-filters="sRGB">
<feFlood flood-opacity="0" result="BackgroundImageFix"/>
<feBlend mode="normal" in="SourceGraphic" in2="BackgroundImageFix" result="shape"/>
<feColorMatrix in="SourceAlpha" type="matrix" values="0 0 0 0 0 0 0 0 0 0 0 0 0 0 0 0 0 0 127 0" result="hardAlpha"/>
<feOffset dy="4"/>
<feGaussianBlur stdDeviation="5"/>
<feComposite in2="hardAlpha" operator="arithmetic" k2="-1" k3="1"/>
<feColorMatrix type="matrix" values="0 0 0 0 0 0 0 0 0 0 0 0 0 0 0 0 0 0 0.15 0"/>
<feBlend mode="normal" in2="shape" result="effect1_innerShadow"/>
</filter>
</defs>
</svg>
