<svg width="55" height="55" viewBox="0 0 55 55" fill="none" xmlns="http://www.w3.org/2000/svg">
<path d="M45.9612 55L37.6269 40.5167C37.6269 35.2306 34.3603 31.8389 30.3915 31.8389C27.6439 31.8389 25.2627 33.3667 24.0415 35.6278C25.049 35.0472 26.2396 34.7417 27.4913 34.7417C31.46 34.7417 34.6961 37.9806 34.6961 41.9528C34.6961 45.9556 31.4906 49.225 27.4913 49.225H37.5658V55H11.5857C10.853 55 10.0898 54.725 9.54028 54.1444C8.99815 53.6013 8.69363 52.865 8.69363 52.0972C8.69363 51.3295 8.99815 50.5931 9.54028 50.05L11.0667 48.5222C10.0287 48.0639 9.17393 47.3611 8.31912 46.6278C7.64749 48.1556 6.12104 49.225 4.35037 49.225C3.19658 49.225 2.09005 48.7663 1.27419 47.9497C0.458341 47.1331 0 46.0256 0 44.8708C0 43.716 0.458341 42.6085 1.27419 41.792C2.09005 40.9754 3.19658 40.5167 4.35037 40.5167L5.78523 40.7611V34.7417C5.7812 32.8386 6.15275 30.9534 6.87854 29.1944C7.60434 27.4354 8.67009 25.8371 10.0146 24.4914C11.3592 23.1457 12.956 22.079 14.7135 21.3526C16.471 20.6262 18.3545 20.2543 20.2559 20.2583H20.317C26.7891 20.2889 31.8264 22.825 31.8264 18.8222C31.8264 15.9806 32.437 14.85 33.4749 13.2611C31.2463 12.2222 28.7124 11.5806 26.0564 11.5806C24.4384 11.5806 23.1562 10.2972 23.1562 8.67778C23.1562 7.36389 24.011 6.26389 25.2016 5.89722L23.1562 5.775C21.5687 5.775 20.2559 4.49167 20.2559 2.90278C20.2559 1.28333 21.5687 0 23.1562 0H26.0564C32.4675 0 38.0848 3.51389 41.1072 8.70833L41.962 8.67778C44.1295 8.67778 46.1444 9.38056 47.793 10.5417L49.1668 11.7028C55.7916 17.6611 54.9673 21.6944 54.9673 21.725C54.9673 25.6361 51.7312 28.8444 47.793 28.8444L46.2971 28.6917V28.9361C46.2971 32.3278 44.8317 35.3528 42.542 37.4917L52.6471 55H45.9612ZM46.2971 14.4833C44.679 14.4833 43.3968 15.7667 43.3968 17.3556C43.3968 18.975 44.679 20.2583 46.2971 20.2583C47.8846 20.2583 49.1973 18.975 49.1973 17.3556C49.1973 15.7667 47.8846 14.4833 46.2971 14.4833Z" fill="url(#paint0_linear)"/>
<defs>
<linearGradient id="paint0_linear" x1="27.5" y1="0" x2="27.5" y2="55" gradientUnits="userSpaceOnUse">
<stop stop-color="#5AB752"/>
<stop offset="1" stop-color="#249F53"/>
</linearGradient>
</defs>
</svg>
