<svg width="84" height="84" viewBox="0 0 84 84" fill="none" xmlns="http://www.w3.org/2000/svg">
<g filter="url(#filter0_i)">
<rect width="84" height="84" rx="10" fill="#6D6D6D"/>
</g>
<path d="M62.3633 72.3334L53.1703 56.3578C53.1703 50.5271 49.5671 46.7859 45.1894 46.7859C42.1588 46.7859 39.5322 48.4711 38.1852 50.9652C39.2964 50.3248 40.6097 49.9878 41.9904 49.9878C46.368 49.9878 49.9375 53.5604 49.9375 57.9419C49.9375 62.3571 46.4017 65.9634 41.9904 65.9634H53.1029V72.3334H24.4461C23.6379 72.3334 22.796 72.03 22.1899 71.3896C21.5919 70.7905 21.256 69.9783 21.256 69.1315C21.256 68.2847 21.5919 67.4725 22.1899 66.8734L23.8736 65.1882C22.7287 64.6826 21.7858 63.9074 20.8429 63.0985C20.1021 64.7837 18.4184 65.9634 16.4653 65.9634C15.1926 65.9634 13.9721 65.4573 13.0722 64.5567C12.1723 63.656 11.6667 62.4343 11.6667 61.1606C11.6667 59.8868 12.1723 58.6652 13.0722 57.7645C13.9721 56.8638 15.1926 56.3578 16.4653 56.3578L18.048 56.6274V49.9878C18.0435 47.8886 18.4534 45.8092 19.2539 43.869C20.0545 41.9287 21.2301 40.1658 22.7131 38.6815C24.1962 37.1971 25.9575 36.0205 27.8961 35.2193C29.8346 34.418 31.9122 34.0078 34.0096 34.0122H34.0769C41.2159 34.0459 46.7721 36.8434 46.7721 32.4282C46.7721 29.2937 47.4456 28.0467 48.5906 26.2941C46.1323 25.1482 43.3374 24.4404 40.4077 24.4404C38.623 24.4404 37.2086 23.0248 37.2086 21.2385C37.2086 19.7893 38.1515 18.5759 39.4648 18.1715L37.2086 18.0367C35.4576 18.0367 34.0096 16.6211 34.0096 14.8685C34.0096 13.0822 35.4576 11.6667 37.2086 11.6667H40.4077C47.4793 11.6667 53.6754 15.5426 57.0091 21.2722L57.952 21.2385C60.3429 21.2385 62.5654 22.0137 64.3838 23.2945L65.8991 24.5752C73.2065 31.1474 72.2973 35.5963 72.2973 35.63C72.2973 39.9441 68.7278 43.483 64.3838 43.483L62.7338 43.3145V43.5841C62.7338 47.3252 61.1174 50.6619 58.5918 53.0211L69.738 72.3334H62.3633ZM62.7338 27.6422C60.949 27.6422 59.5347 29.0578 59.5347 30.8104C59.5347 32.5967 60.949 34.0122 62.7338 34.0122C64.4848 34.0122 65.9328 32.5967 65.9328 30.8104C65.9328 29.0578 64.4848 27.6422 62.7338 27.6422Z" fill="white"/>
<defs>
<filter id="filter0_i" x="0" y="0" width="84" height="88" filterUnits="userSpaceOnUse" color-interpolation-filters="sRGB">
<feFlood flood-opacity="0" result="BackgroundImageFix"/>
<feBlend mode="normal" in="SourceGraphic" in2="BackgroundImageFix" result="shape"/>
<feColorMatrix in="SourceAlpha" type="matrix" values="0 0 0 0 0 0 0 0 0 0 0 0 0 0 0 0 0 0 127 0" result="hardAlpha"/>
<feOffset dy="4"/>
<feGaussianBlur stdDeviation="5"/>
<feComposite in2="hardAlpha" operator="arithmetic" k2="-1" k3="1"/>
<feColorMatrix type="matrix" values="0 0 0 0 0 0 0 0 0 0 0 0 0 0 0 0 0 0 0.15 0"/>
<feBlend mode="normal" in2="shape" result="effect1_innerShadow"/>
</filter>
</defs>
</svg>
