<svg width="19" height="19" viewBox="0 0 19 19" fill="none" xmlns="http://www.w3.org/2000/svg">
<path d="M18.273 0H12.1658C12.0858 0 12.0204 0.0654337 12.0204 0.145408V1.50255C12.0204 1.58253 12.0858 1.64796 12.1658 1.64796H16.0531L11.2231 6.47793C10.0114 5.5449 8.53304 5.04082 6.97959 5.04082C5.11594 5.04082 3.36135 5.76786 2.04541 7.08622C0.729464 8.40459 0 10.1568 0 12.0204C0 13.8841 0.727041 15.6386 2.04541 16.9546C3.36135 18.273 5.11594 19 6.97959 19C8.84324 19 10.5978 18.273 11.9138 16.9546C13.2321 15.6386 13.9592 13.8841 13.9592 12.0204C13.9592 10.467 13.4551 8.99349 12.5245 7.78176L17.352 2.95421V6.83418C17.352 6.91416 17.4175 6.97959 17.4974 6.97959H18.8546C18.9346 6.97959 19 6.91416 19 6.83418V0.727041C19 0.327168 18.6728 0 18.273 0ZM6.97959 17.1582C4.14656 17.1582 1.84184 14.8534 1.84184 12.0204C1.84184 9.18737 4.14656 6.88265 6.97959 6.88265C9.81263 6.88265 12.1173 9.18737 12.1173 12.0204C12.1173 14.8534 9.81263 17.1582 6.97959 17.1582Z" fill="#222222"/>
</svg>
